<?xml version="1.0" standalone="no"?>
<!DOCTYPE svg PUBLIC "-//W3C//DTD SVG 20010904//EN"
 "http://www.w3.org/TR/2001/REC-SVG-20010904/DTD/svg10.dtd">
<svg version="1.0" xmlns="http://www.w3.org/2000/svg"
 width="1024.000000pt" height="1024.000000pt" viewBox="0 0 1024.000000 1024.000000"
 preserveAspectRatio="xMidYMid meet">

<g transform="translate(0.000000,1024.000000) scale(0.100000,-0.100000)"
fill="#000000" stroke="none">
<path d="M2145 8950 c-133 -24 -229 -75 -317 -168 -105 -110 -142 -219 -141
-415 2 -149 11 -136 -127 -166 -163 -36 -291 -116 -336 -209 -31 -66 -40 -173
-22 -261 52 -251 218 -377 493 -374 147 2 274 35 418 108 115 58 152 66 210
42 18 -8 95 -74 172 -148 77 -74 184 -175 238 -226 l96 -92 -42 -53 c-346
-429 -569 -962 -639 -1528 -17 -136 -17 -544 0 -680 70 -564 294 -1101 639
-1529 l43 -53 -97 -92 c-54 -50 -161 -151 -238 -225 -77 -73 -154 -140 -172
-147 -57 -25 -95 -17 -210 41 -144 73 -271 106 -418 108 -121 1 -186 -13 -286
-63 -166 -84 -259 -337 -198 -541 31 -101 166 -197 329 -234 41 -9 91 -22 110
-29 l35 -12 1 -124 c1 -198 40 -315 140 -420 72 -76 134 -116 232 -148 70 -23
92 -26 242 -26 146 -1 174 2 240 22 173 54 276 135 306 240 22 76 13 122 -53
254 -51 104 -56 119 -57 183 -2 135 27 174 480 646 l102 107 83 -60 c729 -522
1685 -682 2556 -427 304 89 630 247 882 427 l83 60 102 -107 c453 -472 482
-510 480 -646 -1 -64 -6 -79 -57 -183 -66 -132 -75 -178 -53 -254 30 -105 133
-186 306 -240 66 -20 94 -23 240 -22 150 0 172 3 242 26 186 62 313 200 359
388 7 30 13 111 13 180 l1 124 35 12 c19 7 69 20 110 29 96 22 204 73 254 122
133 129 123 395 -21 571 -45 55 -94 85 -190 119 -68 23 -93 26 -193 26 -152
-2 -276 -33 -423 -108 -114 -57 -156 -66 -209 -42 -15 7 -127 106 -248 221
-122 115 -231 217 -242 226 -21 17 -21 17 34 86 342 427 561 954 630 1514 17
136 17 544 0 680 -54 433 -193 836 -419 1213 -65 108 -191 286 -242 340 l-26
29 26 21 c15 12 124 114 243 227 119 113 229 210 244 217 53 24 95 15 208 -42
148 -75 271 -106 424 -108 100 0 125 3 193 26 96 34 145 64 190 119 68 83 116
214 117 315 0 56 -18 140 -40 183 -44 86 -164 162 -310 195 -41 9 -91 22 -110
29 l-35 12 -1 119 c-2 216 -41 324 -158 440 -125 124 -229 159 -466 160 -135
0 -165 -3 -230 -23 -173 -55 -276 -135 -306 -240 -22 -75 -14 -115 54 -257 51
-108 57 -126 57 -185 -1 -131 -45 -190 -481 -641 l-103 -106 -83 60 c-390 279
-893 472 -1378 528 -167 20 -553 17 -710 -5 -502 -69 -963 -248 -1349 -524
l-83 -60 -102 107 c-453 472 -482 510 -480 646 1 64 6 79 57 183 66 132 75
178 53 254 -30 104 -132 185 -301 238 -55 17 -101 23 -210 26 -77 1 -162 -1
-190 -6z m3415 -1059 c607 -105 1117 -366 1541 -790 679 -679 963 -1647 758
-2586 -207 -948 -923 -1745 -1845 -2053 -640 -213 -1333 -191 -1955 63 -846
346 -1483 1101 -1678 1990 -50 229 -56 296 -56 610 1 324 10 415 71 665 211
862 838 1588 1663 1925 204 83 397 137 621 174 178 29 177 29 480 26 228 -2
296 -6 400 -24z"/>
<path d="M4235 6616 c-69 -31 -138 -141 -177 -283 -18 -66 -22 -106 -22 -263
-1 -164 2 -195 22 -270 43 -157 127 -278 203 -295 78 -17 151 38 208 158 59
124 76 212 76 402 0 183 -16 275 -69 390 -66 143 -152 201 -241 161z"/>
<path d="M5895 6614 c-74 -38 -136 -139 -177 -289 -19 -69 -22 -106 -21 -260
0 -153 3 -192 22 -260 26 -97 68 -188 107 -234 37 -44 105 -75 148 -67 80 15
164 135 208 296 20 75 23 106 22 270 0 157 -4 197 -22 263 -61 222 -179 338
-287 281z"/>
<path d="M3586 4803 c-15 -86 -39 -135 -91 -191 -64 -69 -137 -109 -229 -124
l-66 -11 0 -138 c0 -77 2 -139 4 -139 41 0 175 27 228 47 39 13 71 23 72 21
182 -266 517 -457 989 -562 227 -51 331 -61 632 -60 240 0 301 3 425 23 267
41 487 106 689 202 237 113 383 230 497 397 1 2 34 -8 72 -22 69 -24 208 -50
224 -40 4 3 8 65 8 138 l0 133 -64 11 c-146 24 -267 122 -306 248 -11 36 -20
75 -20 85 0 18 -9 19 -136 19 l-137 0 6 -72 c6 -86 32 -159 88 -252 38 -63 40
-70 28 -99 -20 -48 -116 -139 -213 -202 -195 -127 -454 -218 -781 -272 -158
-26 -612 -26 -770 0 -321 53 -595 149 -795 279 -71 46 -176 147 -200 192 -13
25 -13 31 5 59 80 135 110 216 116 313 l3 49 -136 3 -136 3 -6 -38z"/>
</g>
</svg>
