<?xml version="1.0" encoding="UTF-8" standalone="no"?>
<svg
   fill="none"
   height="231.78499"
   viewBox="0 0 451.68002 231.78499"
   width="451.68002"
   version="1.1"
   id="svg53"
   sodipodi:docname="logo-aps.svg"
   inkscape:version="1.1.2 (b8e25be8, 2022-02-05)"
   xmlns:inkscape="http://www.inkscape.org/namespaces/inkscape"
   xmlns:sodipodi="http://sodipodi.sourceforge.net/DTD/sodipodi-0.dtd"
   xmlns="http://www.w3.org/2000/svg"
   xmlns:svg="http://www.w3.org/2000/svg">
  <defs
     id="defs57" />
  <sodipodi:namedview
     id="namedview55"
     pagecolor="#ffffff"
     bordercolor="#666666"
     borderopacity="1.0"
     inkscape:pageshadow="2"
     inkscape:pageopacity="0.0"
     inkscape:pagecheckerboard="0"
     showgrid="false"
     fit-margin-top="0"
     fit-margin-left="0"
     fit-margin-right="0"
     fit-margin-bottom="0"
     inkscape:zoom="0.74520716"
     inkscape:cx="417.33362"
     inkscape:cy="146.26805"
     inkscape:window-width="941"
     inkscape:window-height="480"
     inkscape:window-x="0"
     inkscape:window-y="25"
     inkscape:window-maximized="0"
     inkscape:current-layer="svg53" />
  <path
     d="m 41.8095,91.3759 c 0.4384,-0.6028 0.8319,-1.2167 1.2028,-1.8418 2.6803,-4.4852 3.7389,-9.7444 3.0009,-14.9081 -0.738,-5.1637 -3.2283,-9.9228 -7.0594,-13.4903 -3.8311,-3.5675 -8.7735,-5.73 -14.01,-6.1298 -5.2365,-0.3998 -10.4537,0.9869 -14.7889,3.931 C 7.92497,60.4203 5.97656,62.2834 4.39947,64.4401 0.80253099,69.3665 -0.67638301,75.51 0.28807099,81.5192 1.25253,87.5284 4.58135,92.911 9.54223,96.4829 14.5031,100.055 20.6897,101.523 26.741,100.566 32.7923,99.608 38.2126,96.3023 41.8095,91.3759 Z"
     fill="#00b189"
     id="path9" />
  <path
     d="m 435.414,70.0878 c -12.883,-8.9302 -23.719,-11.4084 -36.5,-16.1079 -11.05,-4.0633 -10.645,-10.6605 -7.071,-14.1209 6.206,-6.0279 17.986,-3.6279 22.876,-1.1833 3.502,1.7863 6.606,4.2538 9.128,7.2558 0.367,0.5077 0.847,0.9246 1.403,1.2185 0.555,0.2939 1.172,0.4568 1.801,0.4763 0.629,0.0194 1.255,-0.1052 1.828,-0.3643 0.573,-0.259 1.078,-0.6455 1.476,-1.1295 1.417,-1.6298 18.199,-19.9145 20.065,-21.9461 0.416,-0.4153 0.741,-0.9102 0.957,-1.4546 0.217,-0.5444 0.319,-1.1268 0.301,-1.7118 -0.018,-0.5849 -0.155,-1.1601 -0.405,-1.6904 -0.249,-0.5304 -0.604,-1.0048 -1.044,-1.3943 C 448.487,16.2162 441.619,9.6971099 428.523,4.6515299 417.787,0.37167989 406.095,-0.98851311 394.654,0.71106589 384.942,2.0729299 365.528,5.8124599 354.501,25.5929 c -11.028,19.7805 -2.833,43.2782 6.677,51.3489 11.241,9.5442 19.537,11.6874 32.037,15.6279 12.5,3.9404 20.144,9.5553 15.794,18.0503 -4.002,7.814 -18.076,6.173 -26.327,1.619 -4.349,-2.249 -8.208,-5.329 -11.353,-9.065 -0.375,-0.493 -0.856,-0.897 -1.409,-1.181 -0.552,-0.285 -1.161,-0.443 -1.783,-0.464 -0.622,-0.02 -1.241,0.098 -1.811,0.346 -0.57,0.248 -1.077,0.619 -1.483,1.087 -1.9,2.021 -18.897,19.915 -20.695,21.757 -0.409,0.407 -0.731,0.891 -0.948,1.425 -0.216,0.533 -0.322,1.104 -0.312,1.679 0.011,0.575 0.138,1.142 0.373,1.667 0.236,0.525 0.576,0.998 0.999,1.39 2.889,2.869 8.892,9.902 23.213,15.628 11.634,4.633 24.505,6.084 38.849,4.622 17.176,-1.764 34.375,-13.876 39.838,-26.791 10.196,-24.134 2.147,-45.321 -10.746,-54.2512 z"
     fill="#00538b"
     id="path45" />
  <path
     d="m 280.917,1.6719999 h -49.292 c -1.498,0 -2.248,0.80372 -2.248,2.41116 V 147.09 c -0.048,0.304 -0.023,0.615 0.073,0.907 0.096,0.293 0.261,0.559 0.48,0.777 0.219,0.217 0.487,0.38 0.781,0.476 0.295,0.095 0.608,0.12 0.914,0.072 h 33.723 c 0.307,0.048 0.62,0.023 0.915,-0.072 0.294,-0.096 0.562,-0.259 0.781,-0.476 0.219,-0.218 0.384,-0.484 0.48,-0.777 0.096,-0.292 0.121,-0.603 0.073,-0.907 V 96.7343 h 12.578 c 8.195,0 55.374,-0.3907 55.374,-47.933 0,-47.5423301 -45.673,-47.1293001 -54.632,-47.1293001 z M 277.68,64.3064 H 267.563 V 34.7027 h 10.544 c 7.138,0 20.481,0 20.481,14.3107 0,14.3107 -14.332,15.293 -20.908,15.293 z"
     fill="#00538b"
     id="path47" />
  <path
     d="m 109.245,24.1757 2.619,-6.6976 C 36.8864,-3.8317101 -8.22378,13.6046 10.1553,58.9367 12.4125,57.3918 14.9285,56.2579 17.5856,55.5878 -1.16443,16.3618 38.9772,-0.53868511 109.245,24.1757 Z"
     fill="#00538b"
     id="path49" />
  <path
     d="m 274.184,128.883 v 8.361 c 9.656,9.143 18.526,19.072 26.517,29.682 38.321,51.349 17.289,69.488 -61.657,43.535 -42.356,-13.92 -89.332,-38.423 -129.71,-66.073 l 8.004,-23.118 h 48.482 l 9.937,26.389 c 0.075,0.472 0.326,0.899 0.703,1.197 0.376,0.298 0.852,0.444 1.332,0.41 h 35.904 c 0.33,0.047 0.666,0.017 0.982,-0.088 0.316,-0.105 0.603,-0.281 0.838,-0.515 0.236,-0.234 0.414,-0.519 0.519,-0.833 0.105,-0.314 0.136,-0.647 0.089,-0.975 -0.049,-0.427 -0.183,-0.841 -0.393,-1.217 L 160.346,3.1899699 c -0.115,-0.45546 -0.38,-0.85978 -0.752,-1.14892 -0.373,-0.28914 -0.832,-0.44657 -1.305,-0.44735 h -31.475 c -0.5,-0.0205 -0.993,0.1254 -1.4,0.41456 -0.407,0.28916 -0.706,0.70504 -0.848,1.18171 L 78.2417,121.382 C 65.8078,111.533 54.0393,100.883 43.0124,89.5007 c -0.3709,0.6251 -0.7644,1.239 -1.2028,1.8418 -1.7123,2.34 -3.856,4.3362 -6.3174,5.8828 11.6291,13.1577 24.3089,25.3607 37.9159,36.4907 6.3399,5.254 12.9609,10.43 19.8629,15.528 43.165,31.847 95.852,59.386 143.885,73.016 83.487,23.709 106.295,2.344 69.267,-55.033 -8.127,-12.558 -19.11,-25.518 -32.239,-38.344 z M 141.888,49.5267 155.276,88.5965 h -26.978 z"
     fill="#00538b"
     id="path51" />
</svg>
