<?xml version="1.0" encoding="UTF-8" standalone="no"?>
<svg
   height="8.6974459"
   viewBox="0 -960 366.20827 347.89783"
   width="9.1552067"
   version="1.1"
   id="svg103"
   sodipodi:docname="work_icon.svg"
   inkscape:version="1.1.2 (b8e25be8, 2022-02-05)"
   xmlns:inkscape="http://www.inkscape.org/namespaces/inkscape"
   xmlns:sodipodi="http://sodipodi.sourceforge.net/DTD/sodipodi-0.dtd"
   xmlns="http://www.w3.org/2000/svg"
   xmlns:svg="http://www.w3.org/2000/svg">
  <defs
     id="defs107" />
  <sodipodi:namedview
     id="namedview105"
     pagecolor="#ffffff"
     bordercolor="#666666"
     borderopacity="1.0"
     inkscape:pageshadow="2"
     inkscape:pageopacity="0.0"
     inkscape:pagecheckerboard="0"
     showgrid="false"
     width="300px"
     fit-margin-top="0"
     fit-margin-left="0"
     fit-margin-right="0"
     fit-margin-bottom="0"
     inkscape:zoom="21.208333"
     inkscape:cx="2.9941061"
     inkscape:cy="7.1434185"
     inkscape:window-width="1440"
     inkscape:window-height="747"
     inkscape:window-x="0"
     inkscape:window-y="25"
     inkscape:window-maximized="1"
     inkscape:current-layer="svg103" />
  <path
     d="m 36.62083,-612.10216 q -15.10609,0 -25.86346,-10.75737 Q 0,-633.6169 0,-648.72299 v -201.41453 q 0,-15.10609 10.75737,-25.86346 10.75737,-10.75737 25.86346,-10.75737 h 73.24165 v -36.62082 q 0,-15.10609 10.75737,-25.86346 Q 131.37721,-960 146.4833,-960 h 73.24166 q 15.10609,0 25.86345,10.75737 10.75737,10.75737 10.75737,25.86346 v 36.62082 h 73.24165 q 15.10609,0 25.86346,10.75737 10.75737,10.75737 10.75737,25.86346 v 201.41453 q 0,15.10609 -10.75737,25.86346 -10.75737,10.75737 -25.86346,10.75737 z m 0,-36.62083 h 292.9666 V -850.13752 H 36.62083 Z M 146.4833,-886.75835 h 73.24166 v -36.62082 H 146.4833 Z M 36.62083,-648.72299 v -201.41453 z"
     id="path101"
     style="stroke-width:0.45776" />
</svg>
